<svg width="183" height="56" viewBox="0 0 183 56" fill="none" xmlns="http://www.w3.org/2000/svg">
<path fill-rule="evenodd" clip-rule="evenodd" d="M0 20.0485V40.0968L6.88764 39.9987C14.4862 39.8901 15.4911 39.763 17.7464 38.6248C19.6102 37.684 21.7521 35.5161 22.7115 33.5992C25.3821 28.2634 23.3092 21.3183 18.3493 18.9827L17.194 18.4387L17.6677 17.9359C20.6118 14.812 21.1075 10.1407 18.9538 5.81856C18.0514 4.00781 16.1521 2.0384 14.6438 1.34941C12.3288 0.292205 11.5354 0.181799 5.58049 0.0878828L0 0V20.0485ZM24.333 0.115836C24.333 0.158873 27.274 5.31137 30.8687 11.5657L37.4044 22.9374V31.4974V40.0574H40.5214H43.6385V31.3806V22.7037L49.7949 12.0242C53.181 6.15058 56.1307 1.04856 56.3499 0.686572L56.7483 0.0283559L53.0849 0.0832572L49.4215 0.138159L44.9414 7.94122L40.4613 15.7445L35.9744 7.89094L31.4875 0.0376066H27.9103C25.9428 0.0376066 24.333 0.0727999 24.333 0.115836ZM61.1341 20.0296V40.0574H64.2511H67.3681V31.8986V23.74L67.8081 23.8042C68.1321 23.8516 69.7361 26.002 73.8914 31.9601L79.5346 40.052L83.3052 40.0546C85.3792 40.0562 87.0758 40.0017 87.0758 39.9338C87.0758 39.8656 84.361 36.0691 81.0429 31.4972C77.7247 26.9253 75.0099 23.1492 75.0099 23.1059C75.0099 23.0627 75.3946 22.9137 75.8646 22.7749C79.2704 21.7694 82.0954 18.8509 83.1765 15.221C83.6181 13.7385 83.6726 10.2841 83.2797 8.68511C82.2712 4.58076 79.3259 1.78963 74.7545 0.606934C73.2967 0.229661 72.3864 0.168123 67.1168 0.0902959L61.1341 0.0018101V20.0296ZM98.3398 19.6956C92.9954 30.5076 88.5428 39.5118 88.4455 39.7055C88.2802 40.0337 88.4962 40.0574 91.6585 40.0574H95.0486L97.246 35.2355L99.4434 30.4139L107.915 30.409L116.387 30.4044L118.464 35.2309L120.541 40.0574H123.918C125.776 40.0574 127.296 39.9895 127.296 39.9066C127.298 39.6178 108.338 0.0376066 108.198 0.0376066C108.12 0.0376066 103.684 8.8836 98.3398 19.6956ZM132.122 20.0475V40.0574H135.239H138.356V20.0475V0.0376066H135.239H132.122V20.0475ZM147.808 20.0475V40.0574H150.923H154.039L154.09 27.6095L154.142 15.1613L168.506 27.6095C176.405 34.4559 182.898 40.0574 182.934 40.0574C182.97 40.0574 183 31.053 183 20.0475V0.0376066H179.885H176.769L176.717 12.4785L176.665 24.9195L162.387 12.488C154.534 5.65084 148.042 0.0522874 147.959 0.0470587C147.875 0.04183 147.808 9.04207 147.808 20.0475ZM10.3646 5.97904C11.9324 6.38507 12.9282 7.06199 13.5704 8.15761C14.9672 10.5413 14.4047 14.5459 12.4806 15.916C11.4926 16.6195 10.2482 16.9563 8.19478 17.0758L6.23407 17.19V11.4292V5.66854H7.70008C8.50628 5.66854 9.70544 5.8083 10.3646 5.97904ZM73.6314 6.45365C74.2556 6.69256 75.1281 7.15028 75.5702 7.47043C77.9821 9.21763 78.185 13.7662 75.9549 16.0934C74.6529 17.4519 72.8213 18.0723 69.5299 18.2698L67.3681 18.3997V12.1079V5.81635L69.9321 5.9175C71.8943 5.99513 72.7626 6.12102 73.6314 6.45365ZM108.053 24.5253C104.888 24.5547 102.26 24.5404 102.214 24.4937C102.167 24.4469 103.47 21.4772 105.11 17.8943L108.091 11.3801L110.949 17.9259L113.808 24.4718L108.053 24.5253ZM13.4762 22.8557C17.5457 24.096 19.0541 28.8456 16.3733 31.9776C15.0034 33.5782 12.7776 34.2212 8.59698 34.2238L6.23407 34.2254V28.2683V22.3114L9.30082 22.4145C11.3305 22.4829 12.7424 22.6321 13.4762 22.8557ZM89.9548 45.6769C88.8574 46.1752 88.4059 47.0217 88.5328 48.3425C88.6591 49.6576 89.1765 50.1708 91.4421 51.2284C92.9254 51.921 93.3205 52.1965 93.4245 52.6112C93.872 54.3938 92.0015 55.2368 89.3702 54.4386C88.8272 54.2739 88.3548 54.1382 88.3206 54.137C88.2862 54.1358 88.2862 54.4706 88.3206 54.8811C88.3962 55.7866 88.6826 55.8978 90.9973 55.9202C93.7785 55.9473 94.9187 55.0846 94.9187 52.9535C94.9187 51.5705 94.3353 50.9257 92.3515 50.1163C90.6638 49.4277 89.8912 48.76 89.8912 47.9898C89.8912 46.8236 91.3001 46.2907 93.1088 46.7729C94.3079 47.0925 94.4759 47.0378 94.5609 46.2995C94.6082 45.8895 94.4905 45.774 93.8126 45.5651C92.594 45.1894 90.9218 45.2379 89.9548 45.6769ZM95.7231 45.6946C95.7231 45.8088 96.3264 48.1617 97.0638 50.9233L98.4045 55.9447H99.0625C99.7123 55.9447 99.7272 55.9232 100.224 54.2856C100.501 53.373 101.026 51.5642 101.392 50.2661C101.758 48.9678 102.103 47.9049 102.158 47.9041C102.214 47.9033 102.795 49.7121 103.45 51.9236L104.641 55.9447H105.294C106.068 55.9447 105.905 56.362 107.499 50.3216C108.126 47.948 108.683 45.8893 108.738 45.7465C108.809 45.5619 108.608 45.4873 108.041 45.4873H107.244L106.218 49.5596C105.654 51.7993 105.189 53.4963 105.186 53.3303C105.183 53.1644 104.667 51.332 104.04 49.258L102.898 45.4873H102.155H101.412L100.368 49.0569C99.7931 51.02 99.2761 52.7622 99.2188 52.9281C99.1615 53.094 98.7548 51.8271 98.315 50.1127C97.8752 48.3982 97.4254 46.6563 97.3154 46.2414C97.133 45.5538 97.0539 45.4873 96.4191 45.4873C96.0364 45.4873 95.7231 45.5806 95.7231 45.6946ZM110.202 50.716V55.9447H110.906H111.61V50.716V45.4873H110.906H110.202V50.716ZM112.816 46.0906V46.6939H114.425H116.034V51.3193V55.9447H116.738H117.442V51.3193V46.6939H119.051H120.659V46.0906V45.4873H116.738H112.816V46.0906ZM121.464 46.0845V46.6818L123.977 46.7381L126.491 46.7944L123.877 50.716C121.867 53.7313 121.263 54.7885 121.263 55.2911L121.263 55.9447H124.882H128.502V55.2465V54.5482L125.812 54.4923L123.122 54.4364L125.708 50.5149C127.423 47.9128 128.294 46.4073 128.297 46.0403L128.301 45.4873H124.882H121.464V46.0845ZM130.312 50.716V55.9447H133.228H136.144V55.2408V54.537H133.932H131.72V52.8276V51.1182H133.831H135.943V50.4143V49.7105H133.831H131.72V48.2022V46.6939H133.932H136.144V46.0906V45.4873H133.228H130.312V50.716ZM138.155 50.716V55.9447H138.859H139.563V53.7325V51.5204H140.526H141.49L142.762 53.7325L144.034 55.9447H144.815C145.244 55.9447 145.595 55.8769 145.595 55.7939C145.595 55.7108 144.999 54.6504 144.27 53.4371C143.427 52.0344 143.033 51.2014 143.189 51.1496C143.808 50.9432 144.625 49.9528 144.792 49.2067C145.008 48.243 144.771 47.0293 144.256 46.4503C143.591 45.704 142.717 45.4873 140.373 45.4873H138.155V50.716ZM147.003 50.7204V55.9535L150.761 55.8988L154.519 55.8441L155.141 54.2353L155.764 52.6265L157.7 52.5692L159.637 52.5118L160.285 54.2283C160.921 55.9147 160.944 55.9447 161.61 55.9447C161.993 55.9447 162.287 55.8425 162.287 55.709C162.287 55.5793 161.41 53.2264 160.339 50.4803L158.391 45.4873H157.753H157.116L155.587 49.3585C154.746 51.4876 153.851 53.7728 153.598 54.4364C153.203 55.4705 153.128 55.564 153.073 55.09L153.01 54.537H150.71H148.411V50.0121V45.4873H147.707H147.003V50.7204ZM163.493 50.716V55.9447H164.193H164.893L164.947 51.8977L165.002 47.8506L167.616 51.8961L170.23 55.9417L170.984 55.9433L171.738 55.9447V50.716V45.4873H171.139H170.54L170.486 49.5478L170.431 53.6085L167.817 49.555L165.203 45.5017L164.348 45.4945L163.493 45.4873V50.716ZM174.353 50.7435V56L176.718 55.9025C179.449 55.7901 180.516 55.4311 181.521 54.2862C182.363 53.3271 182.686 52.3148 182.693 50.6154C182.7 48.9151 182.247 47.621 181.338 46.7395C180.341 45.773 179.269 45.4873 176.64 45.4873H174.353V50.7435ZM142.565 46.9881C143.219 47.3266 143.384 47.6558 143.384 48.6299C143.384 49.1013 143.224 49.486 142.89 49.8201C142.459 50.2508 142.216 50.3138 140.979 50.3138H139.563V48.5038V46.6939H140.779C141.454 46.6939 142.249 46.825 142.565 46.9881ZM179.3 47.077C180.619 47.6761 181.079 48.5078 181.147 50.4143C181.196 51.7947 181.138 52.1374 180.739 52.827C180.114 53.9045 179.029 54.4632 177.218 54.6381L175.76 54.7789V50.7363V46.6939L177.118 46.6983C178.004 46.7011 178.761 46.8326 179.3 47.077ZM159.012 51.2421C158.959 51.2952 158.332 51.3116 157.618 51.2787L156.319 51.2187L157.038 49.2779L157.757 47.3372L158.433 49.2413C158.805 50.2886 159.066 51.189 159.012 51.2421Z" fill="white"/>
</svg>
