<svg width="682" height="208" viewBox="0 0 682 208" fill="none" xmlns="http://www.w3.org/2000/svg">
<path fill-rule="evenodd" clip-rule="evenodd" d="M0 74.4659V148.931L25.6687 148.567C53.9867 148.163 57.7317 147.691 66.1368 143.463C73.0827 139.969 81.0651 131.917 84.6407 124.797C94.5934 104.979 86.8681 79.1822 68.3836 70.507L64.078 68.4865L65.8437 66.6191C76.8157 55.0158 78.6631 37.6655 70.6365 21.6118C67.2737 14.8862 60.1951 7.57119 54.5742 5.0121C45.9466 1.08533 42.99 0.675252 20.7973 0.326422L0 0V74.4659ZM90.6835 0.430249C90.6835 0.590099 101.644 19.728 115.041 42.9584L139.398 85.196V116.99V148.785H151.014H162.631V116.556V84.328L185.574 44.6615C198.194 22.845 209.187 3.89465 210.004 2.55012L211.488 0.105322L197.835 0.309241L184.183 0.513162L167.486 29.496L150.79 58.4795L134.068 29.3092L117.347 0.139682H104.015C96.6829 0.139682 90.6835 0.2704 90.6835 0.430249ZM227.833 74.3957V148.785H239.449H251.066V118.481V88.1771L252.706 88.4154C253.913 88.5917 259.891 96.5789 275.377 118.709L296.408 148.765L310.46 148.774C318.189 148.78 324.512 148.578 324.512 148.325C324.512 148.072 314.395 133.971 302.029 116.99C289.663 100.008 279.545 85.9826 279.545 85.822C279.545 85.6614 280.979 85.1079 282.73 84.5925C295.423 80.8577 305.951 70.0178 309.98 56.5352C311.626 51.0286 311.829 38.198 310.365 32.259C306.606 17.0143 295.63 6.6472 278.593 2.25433C273.16 0.853028 269.768 0.624458 250.129 0.335385L227.833 0.00672322V74.3957ZM366.49 73.155C346.573 113.314 329.979 146.758 329.617 147.478C329.001 148.697 329.805 148.785 341.591 148.785H354.225L362.414 130.875L370.603 112.966L402.175 112.948L433.748 112.931L441.489 130.858L449.23 148.785H461.816C468.739 148.785 474.404 148.532 474.405 148.225C474.411 147.152 403.75 0.139682 403.229 0.139682C402.94 0.139682 386.408 32.9962 366.49 73.155ZM492.389 74.4622V148.785H504.005H515.622V74.4622V0.139682H504.005H492.389V74.4622ZM550.846 74.4622V148.785H562.457H574.068L574.26 102.549L574.454 56.3133L627.983 102.549C657.423 127.979 681.622 148.785 681.756 148.785C681.89 148.785 682 115.34 682 74.4622V0.139682H670.39H658.778L658.586 46.3489L658.392 92.5581L605.181 46.384C575.915 20.9888 551.718 0.19421 551.408 0.17479C551.099 0.155369 550.846 33.5848 550.846 74.4622ZM38.6267 22.2079C44.4694 23.716 48.1807 26.2302 50.5737 30.2997C55.7794 39.1534 53.6831 54.0276 46.5124 59.1167C42.8303 61.7295 38.1927 62.9807 30.5401 63.4244L23.233 63.8486V42.4512V21.0546H28.6965C31.701 21.0546 36.17 21.5737 38.6267 22.2079ZM274.408 23.9707C276.734 24.8581 279.986 26.5582 281.633 27.7473C290.622 34.2369 291.378 51.1317 283.067 59.7755C278.215 64.8212 271.389 67.1256 259.123 67.8591L251.066 68.3416V44.9722V21.6036L260.621 21.9793C267.934 22.2676 271.17 22.7352 274.408 23.9707ZM402.691 91.094C390.895 91.2031 381.102 91.15 380.927 90.9767C380.753 90.8027 385.61 79.7723 391.72 66.4645L402.83 42.269L413.484 66.5818L424.137 90.8953L402.691 91.094ZM50.2229 84.8928C65.3888 89.4993 71.0104 107.141 61.0195 118.774C55.9143 124.719 47.6193 127.107 32.039 127.117L23.233 127.123V104.996V82.8707L34.6621 83.2539C42.2263 83.5079 47.4882 84.0621 50.2229 84.8928ZM335.241 169.657C331.151 171.508 329.469 174.652 329.942 179.558C330.413 184.442 332.341 186.349 340.784 190.277C346.312 192.849 347.785 193.873 348.172 195.413C349.84 202.034 342.869 205.165 333.063 202.201C331.039 201.589 329.279 201.085 329.151 201.08C329.023 201.076 329.023 202.319 329.151 203.844C329.433 207.207 330.5 207.621 339.126 207.703C349.491 207.804 353.741 204.6 353.741 196.684C353.741 191.547 351.567 189.153 344.173 186.146C337.884 183.589 335.004 181.109 335.004 178.248C335.004 173.916 340.255 171.937 346.996 173.728C351.465 174.915 352.09 174.712 352.407 171.97C352.584 170.447 352.145 170.018 349.619 169.242C345.077 167.846 338.845 168.026 335.241 169.657ZM356.738 169.723C356.738 170.147 358.987 178.886 361.735 189.144L366.732 207.795H369.184C371.605 207.795 371.661 207.715 373.512 201.632C374.543 198.242 376.503 191.524 377.867 186.703C379.23 181.88 380.515 177.933 380.721 177.93C380.927 177.927 383.093 184.645 385.534 192.859L389.972 207.795H392.408C395.293 207.795 394.684 209.345 400.626 186.909C402.961 178.092 405.038 170.446 405.242 169.915C405.507 169.23 404.759 168.953 402.643 168.953H399.674L395.85 184.079C393.747 192.397 392.017 198.7 392.006 198.084C391.995 197.468 390.072 190.662 387.732 182.958L383.478 168.953H380.709H377.94L374.048 182.211C371.907 189.503 369.98 195.974 369.766 196.59C369.553 197.206 368.037 192.501 366.398 186.133C364.759 179.765 363.083 173.295 362.673 171.754C361.993 169.2 361.698 168.953 359.332 168.953C357.906 168.953 356.738 169.299 356.738 169.723ZM410.699 188.374V207.795H413.322H415.945V188.374V168.953H413.322H410.699V188.374ZM420.442 171.194V173.434H426.437H432.433V190.614V207.795H435.056H437.679V190.614V173.434H443.675H449.67V171.194V168.953H435.056H420.442V171.194ZM452.668 171.171V173.39L462.036 173.599L471.404 173.808L461.662 188.374C454.172 199.574 451.92 203.5 451.919 205.367L451.919 207.795H465.409H478.899V205.201V202.608L468.874 202.4L458.85 202.192L468.485 187.627C474.877 177.962 478.124 172.37 478.134 171.007L478.149 168.953H465.409H452.668V171.171ZM485.644 188.374V207.795H496.511H507.378V205.18V202.566H499.134H490.89V196.217V189.868H498.759H506.629V187.253V184.639H498.759H490.89V179.037V173.434H499.134H507.378V171.194V168.953H496.511H485.644V188.374ZM514.873 188.374V207.795H517.496H520.119V199.578V191.361H523.71H527.301L532.042 199.578L536.784 207.795H539.693C541.293 207.795 542.601 207.543 542.601 207.234C542.601 206.926 540.377 202.987 537.66 198.481C534.52 193.271 533.053 190.177 533.632 189.984C535.94 189.218 538.985 185.539 539.607 182.768C540.411 179.188 539.531 174.68 537.61 172.53C535.133 169.758 531.875 168.953 523.14 168.953H514.873V188.374ZM547.848 188.39V207.827L561.853 207.624L575.858 207.421L578.177 201.445L580.497 195.47L587.714 195.257L594.931 195.044L597.345 201.419C599.717 207.683 599.803 207.795 602.283 207.795C603.713 207.795 604.807 207.415 604.807 206.919C604.807 206.437 601.54 197.698 597.547 187.498L590.288 168.953H587.912H585.535L579.838 183.332C576.704 191.24 573.368 199.727 572.424 202.192C570.952 206.033 570.673 206.381 570.47 204.62L570.232 202.566H561.664H553.095V185.759V168.953H550.471H547.848V188.39ZM609.303 188.374V207.795H611.911H614.519L614.721 192.763L614.924 177.731L624.667 192.757L634.41 207.783L637.22 207.789L640.031 207.795V188.374V168.953H637.798H635.565L635.362 184.035L635.159 199.117L625.417 184.061L615.674 169.006L612.488 168.98L609.303 168.953V188.374ZM649.774 188.476V208L658.587 207.638C668.766 207.22 672.741 205.887 676.487 201.634C679.625 198.072 680.829 194.312 680.855 188C680.88 181.685 679.194 176.878 675.805 173.604C672.089 170.014 668.094 168.953 658.298 168.953H649.774V188.476ZM531.306 174.527C533.747 175.784 534.358 177.007 534.358 180.625C534.358 182.376 533.764 183.805 532.518 185.046C530.914 186.646 530.005 186.88 525.399 186.88H520.119V180.157V173.434H524.653C527.166 173.434 530.131 173.921 531.306 174.527ZM668.209 174.857C673.125 177.083 674.841 180.172 675.095 187.253C675.278 192.38 675.062 193.653 673.573 196.214C671.246 200.217 667.199 202.292 660.453 202.942L655.02 203.464V188.449V173.434L660.079 173.451C663.381 173.461 666.204 173.95 668.209 174.857ZM592.603 190.328C592.405 190.525 590.066 190.586 587.406 190.464L582.567 190.241L585.246 183.032L587.924 175.824L590.443 182.896C591.83 186.786 592.802 190.13 592.603 190.328Z" fill="#262626"/>
</svg>
